<?xml version="1.0" standalone="no"?>
<!DOCTYPE svg PUBLIC "-//W3C//DTD SVG 20010904//EN"
 "http://www.w3.org/TR/2001/REC-SVG-20010904/DTD/svg10.dtd">
<svg version="1.0" xmlns="http://www.w3.org/2000/svg"
 width="700.000000pt" height="700.000000pt" viewBox="0 0 700.000000 700.000000"
 preserveAspectRatio="xMidYMid meet">
<metadata>
Created by potrace 1.11, written by Peter Selinger 2001-2013
</metadata>
<g transform="translate(0.000000,700.000000) scale(0.100000,-0.100000)"
fill="#000000" stroke="none">
<path d="M3337 6914 c-1 -1 -58 -4 -127 -8 -69 -3 -136 -8 -150 -10 -14 -3
-50 -7 -81 -11 -55 -5 -75 -9 -129 -20 -14 -3 -42 -7 -63 -10 -21 -2 -41 -6
-45 -9 -4 -2 -28 -7 -52 -11 -25 -3 -58 -10 -75 -15 -16 -5 -94 -28 -173 -51
-1006 -290 -1849 -1073 -2221 -2064 -83 -223 -152 -484 -181 -690 -6 -44 -13
-93 -15 -110 -14 -93 -20 -214 -20 -410 0 -228 7 -329 30 -480 3 -16 7 -48 10
-70 13 -87 46 -236 79 -355 223 -812 745 -1520 1454 -1970 195 -123 448 -249
660 -326 93 -34 124 -41 120 -26 -1 7 7 92 18 177 3 22 7 193 9 380 3 276 6
340 17 338 31 -4 258 -56 311 -71 57 -15 58 -16 34 -29 -39 -20 -61 -91 -61
-192 0 -84 13 -250 19 -262 2 -3 6 -27 10 -53 3 -27 7 -51 9 -55 2 -3 7 -24
10 -46 4 -22 18 -87 32 -145 14 -58 28 -116 30 -130 6 -29 29 -50 58 -51 24
-1 46 -3 101 -12 22 -4 69 -9 105 -12 36 -3 85 -8 110 -11 62 -8 420 -7 500 0
36 4 90 9 120 12 72 6 278 41 360 60 36 9 76 18 90 20 60 11 304 90 421 135
121 47 405 183 441 211 14 10 19 36 25 123 13 197 6 302 -25 401 -52 166 -165
211 -355 139 -47 -17 -83 -27 -80 -21 4 6 26 34 48 61 139 172 234 396 265
625 11 80 15 313 6 328 -2 4 -7 32 -11 62 -12 99 -51 245 -95 356 -75 189
-207 416 -343 592 -31 41 -54 78 -51 83 3 5 9 7 13 4 14 -8 89 49 119 90 84
116 124 382 78 513 -16 45 -55 105 -106 162 -39 45 -45 67 -44 170 1 88 14
168 41 255 15 49 76 205 93 236 10 19 24 103 23 139 -1 73 -16 179 -44 314
-17 83 -33 165 -36 181 -19 126 -158 448 -254 591 -111 165 -288 314 -455 384
-70 29 -81 31 -116 21 -27 -8 -42 -20 -49 -38 -20 -54 -3 -99 93 -246 51 -78
98 -151 105 -162 6 -11 37 -63 68 -115 53 -89 198 -375 279 -552 196 -430 213
-791 42 -905 -60 -41 -81 -41 -157 -3 -117 59 -309 113 -459 128 -141 14 -402
3 -530 -23 -14 -3 -36 -7 -50 -10 -112 -21 -240 -57 -305 -85 -11 -5 -49 -21
-85 -36 -332 -143 -606 -436 -713 -762 l-33 -102 -56 -34 c-96 -58 -179 -126
-293 -241 -214 -216 -281 -370 -151 -350 85 12 244 12 321 0 118 -20 130 -23
255 -65 63 -21 124 -40 135 -43 11 -3 2 -6 -20 -7 -91 -4 -139 -10 -174 -20
-139 -42 -301 -152 -391 -265 -47 -59 -25 -106 72 -152 84 -41 106 -48 223
-77 170 -42 248 -51 309 -36 30 7 82 11 116 8 51 -4 67 -9 83 -29 25 -31 18
-92 -21 -162 -34 -62 -31 -90 19 -173 96 -159 363 -338 714 -479 50 -19 99
-40 110 -45 66 -30 414 -145 513 -170 40 -10 56 -25 30 -28 -7 -1 -42 -5 -78
-9 -124 -14 -316 -6 -500 22 -95 15 -219 37 -255 47 -22 5 -49 12 -60 14 -19
4 -180 46 -315 83 -36 10 -130 40 -209 66 l-143 48 -52 -16 c-28 -8 -64 -18
-81 -21 -16 -3 -43 -8 -60 -12 -64 -12 -217 -11 -281 2 -121 26 -191 66 -254
145 -35 45 -76 133 -83 180 -5 28 -8 28 -62 14 -99 -25 -164 2 -216 90 -21 35
-23 53 -24 150 0 137 17 185 92 268 30 32 62 75 70 95 36 85 17 199 -43 268
-18 22 -41 54 -50 73 -24 51 -14 138 25 213 35 65 142 229 169 257 33 34 217
234 235 255 10 12 42 46 71 76 l54 55 4 77 c10 173 157 378 406 566 39 30 72
56 72 57 0 2 -6 10 -13 17 -32 33 -148 196 -192 270 -84 141 -163 306 -205
428 -7 19 -16 44 -21 55 -15 35 -59 225 -74 315 -11 65 -14 325 -5 380 5 30
11 71 14 90 14 97 51 216 114 370 24 58 126 128 200 137 64 7 110 -9 157 -55
90 -90 137 -231 210 -635 32 -178 91 -352 166 -495 70 -134 124 -208 234 -317
125 -126 98 -118 379 -111 132 4 273 8 311 11 196 11 262 16 285 20 14 2 50 6
80 10 30 3 98 15 150 26 124 27 139 42 133 131 -6 90 -34 293 -47 336 -3 9 -7
29 -10 44 -34 199 -169 512 -329 764 -89 140 -117 212 -122 309 -6 154 62 222
230 232 223 14 435 -111 687 -404 197 -230 409 -637 443 -852 3 -19 7 -37 9
-40 4 -5 13 -78 21 -166 25 -255 25 -929 0 -1056 -3 -13 -8 -44 -11 -69 -11
-79 -52 -225 -103 -362 -27 -73 -55 -154 -61 -180 -15 -57 -10 -67 107 -244
232 -351 402 -703 511 -1059 34 -110 97 -357 107 -420 4 -22 11 -53 15 -70 5
-16 11 -50 14 -75 4 -25 10 -70 16 -100 16 -90 18 -109 36 -259 l17 -145 -34
-30 c-19 -17 -59 -53 -89 -79 -35 -31 -26 -25 24 15 96 76 339 314 428 418
353 416 613 929 732 1448 14 59 28 123 31 142 3 19 10 60 15 90 30 171 42 338
42 550 0 91 -3 197 -6 235 -11 130 -22 226 -31 269 -2 12 -7 38 -10 59 -50
357 -224 830 -438 1187 -256 428 -610 799 -1029 1079 -296 197 -600 336 -993
454 -60 18 -269 65 -322 72 -21 3 -67 10 -103 15 -91 14 -131 18 -245 25 -91
6 -314 12 -318 9z m654 -3304 c107 -21 263 -25 307 -9 22 9 23 7 17 -23 -11
-50 -55 -115 -101 -148 -74 -53 -172 -69 -304 -49 -105 16 -121 19 -202 40
-97 24 -140 24 -205 -1 -29 -11 -53 -16 -53 -12 0 17 62 102 100 136 46 41
110 76 160 87 49 11 157 2 281 -21z"/>
<path d="M5479 783 c-13 -16 -12 -17 4 -4 16 13 21 21 13 21 -2 0 -10 -8 -17
-17z"/>
</g>
</svg>
